<svg width="17" height="23" viewBox="0 0 17 23" fill="none" xmlns="http://www.w3.org/2000/svg">
<path d="M8.87155 22.336C7.56488 22.336 6.33288 22.1027 5.17555 21.636C4.03688 21.1507 3.04755 20.4693 2.20755 19.592C1.38621 18.7147 0.770214 17.6787 0.359547 16.484L3.91555 14.888C4.43821 16.0267 5.15688 16.9227 6.07155 17.576C7.00488 18.2293 8.03155 18.556 9.15155 18.556C9.74888 18.556 10.2622 18.4627 10.6915 18.276C11.1209 18.0893 11.4569 17.8373 11.6995 17.52C11.9422 17.184 12.0635 16.792 12.0635 16.344C12.0635 15.8587 11.9142 15.448 11.6155 15.112C11.3169 14.7573 10.8502 14.4773 10.2155 14.272L6.12755 12.928C4.46621 12.3867 3.21555 11.6213 2.37555 10.632C1.53555 9.624 1.11555 8.42 1.11555 7.02C1.11555 5.788 1.41421 4.70533 2.01155 3.772C2.62755 2.83867 3.47688 2.11067 4.55955 1.588C5.66088 1.06533 6.92088 0.803999 8.33955 0.803999C9.59021 0.803999 10.7475 1.01867 11.8115 1.448C12.8755 1.87733 13.7902 2.484 14.5555 3.268C15.3395 4.052 15.9275 4.99467 16.3195 6.096L12.7915 7.692C12.3995 6.72133 11.8115 5.96533 11.0275 5.424C10.2435 4.864 9.34755 4.584 8.33955 4.584C7.76088 4.584 7.24755 4.67733 6.79955 4.864C6.35155 5.05067 6.00621 5.32133 5.76355 5.676C5.52088 6.012 5.39955 6.404 5.39955 6.852C5.39955 7.33733 5.55821 7.76667 5.87555 8.14C6.19288 8.49467 6.66888 8.77467 7.30355 8.98L11.3075 10.268C12.9875 10.8093 14.2382 11.5653 15.0595 12.536C15.8995 13.5067 16.3195 14.692 16.3195 16.092C16.3195 17.3053 16.0022 18.388 15.3675 19.34C14.7329 20.2733 13.8555 21.0107 12.7355 21.552C11.6342 22.0747 10.3462 22.336 8.87155 22.336Z" fill="black"/>
</svg>
